<script lang="ts">
	let props = $props();
</script>

<svg version="1.1" id="hobbies_1_" xmlns="http://www.w3.org/2000/svg" xmlns:xlink="http://www.w3.org/1999/xlink" x="0px"
	y="0px" viewBox="0 0 128 128" style="enable-background:new 0 0 128 128;" xml:space="preserve" {...props}
	class={props.class}>
	<style type="text/css">
		.st0 {
			display: none;
		}

		.st1 {
			display: inline;
		}

		.st2 {
			fill: #141414;
		}

		.st3 {
			display: inline;
			fill-rule: evenodd;
			clip-rule: evenodd;
			fill: #141414;
		}

		.st4 {
			fill-rule: evenodd;
			clip-rule: evenodd;
			fill: #141414;
		}
	</style>
	<g id="row3_1_">
		<g id="party_1_" class="st0">
			<g id="_x32_" class="st1">
				<g>
					<path class="st2" d="M73.3,34.3c0-0.2-0.7-0.4-0.7-0.4v-3.2h-3.2V3.6h-4.7v27.1h-3.2c0,0,0.2,3.6-0.4,3.7
					c-19.5,3.2-34.3,20.4-34.3,41c0,22.9,18.4,41.5,41.1,41.5c22.7,0,41.1-18.6,41.1-41.5C108.9,54.4,93.4,37,73.3,34.3z M55,41.1
					c-1.9,3.5-4.2,9-5.7,16.8H35.8C40,50.2,46.8,44.2,55,41.1z M34.4,60.6h14.4c-0.6,4-1.1,8.6-1.1,13.7H31.3
					C31.4,69.5,32.5,64.8,34.4,60.6z M31.2,77.1h16.4c0.1,5.2,0.5,9.7,1.1,13.7H34.5C32.6,86.6,31.4,82,31.2,77.1z M35.8,93.5h13.5
					c1.5,7.8,3.8,13.3,5.8,16.8C46.8,107.2,40,101.2,35.8,93.5z M66.6,112.7c-2.8-0.1-5.6-0.5-8.2-1.3c-2-3.4-4.7-9.2-6.4-17.9h14.6
					V112.7z M66.6,90.8H51.5c-0.6-4-1.1-8.5-1.1-13.7h16.2V90.8z M66.6,74.3H50.4c0.1-5.2,0.5-9.7,1.1-13.7h15.1V74.3z M66.6,57.9
					H52c1.7-8.6,4.3-14.4,6.3-17.9c2.7-0.7,5.5-1.2,8.3-1.3V57.9z M104.4,74.3H88.3c-0.1-5.2-0.5-9.7-1.1-13.7h14
					C103.1,64.8,104.2,69.5,104.4,74.3z M99.8,57.9H86.7c-1.5-7.7-3.7-13.1-5.7-16.7C89.1,44.4,95.7,50.3,99.8,57.9z M69.3,38.7
					c2.9,0.1,5.7,0.6,8.4,1.3c2,3.5,4.7,9.2,6.3,17.8H69.3V38.7z M69.3,60.6h15.1c0.6,4,1.1,8.6,1.1,13.7H69.3V60.6z M69.3,77.1
					h16.2c-0.1,5.2-0.5,9.7-1.1,13.7H69.3V77.1z M69.3,112.6V93.5H84c-1.7,8.6-4.3,14.4-6.3,17.8C75,112.1,72.2,112.5,69.3,112.6z
					 M81,110.2c1.9-3.5,4.2-8.9,5.7-16.7h13.1C95.7,101.1,89.1,107.1,81,110.2z M101.1,90.8H87.2c0.6-4,1.1-8.5,1.1-13.7h16
					C104.2,82,103,86.6,101.1,90.8z" />
				</g>
			</g>
			<g id="_x31_" class="st1">
				<g>
					<path class="st2" d="M31.1,76.9c0.5,4.9,0.6,4.7,1.2,7.7c0.5,2.4,2.2,6.2,2.2,6.2h14.3l-1.1-13.9H31.1z M31.5,27.3
					c-6.5-6.6-6.7-19.6-6.7-19.6s-0.2,12.9-6.7,19.6c-5.2,5.4-15.5,5.8-17.7,5.9c2.2,0,12.5,0.3,18.7,5.9c5.3,4.8,5.7,16.7,5.7,16.7
					s-0.4-11.1,5.7-16.7c6.3-5.7,19.1-5.9,19.1-5.9S37.5,33.4,31.5,27.3z M91.7,39.5c0,0,0.1,0,0.3,0C91.8,39.5,91.7,39.5,91.7,39.5
					z M109.9,55.7c0,0-0.3-8,4.2-12c4.6-4.1,14-4.2,14-4.2s-8.9,0.2-13.3-4.2c-4.7-4.8-4.9-14.1-4.9-14.1s-0.1,9.3-4.9,14.1
					c-3.9,3.9-11.6,4.2-13,4.2c1.4,0,9.2,0.2,13.7,4.2C109.6,47.2,109.9,55.7,109.9,55.7z M0.4,33.2c-0.3,0-0.4,0-0.4,0
					S0.2,33.2,0.4,33.2z M85,100.4c-1.1,3.8-4,9.8-4,9.8s8.8-3.4,12.9-7.8c5.1-5.5,5.9-8.9,5.9-8.9H86.7
					C86.7,93.5,86.1,96.5,85,100.4z M35.8,57.9h13.5L55,41.1c0,0-5.4,1.9-11.1,6.6C39.2,51.5,35.8,57.9,35.8,57.9z M85.3,68.1
					c-0.3-3.7-0.9-7.5-0.9-7.5H69.3v13.7h16.3C85.6,74.3,85.5,70.6,85.3,68.1z M114.6,110.5c-2.7-2.9-2.8-8.6-2.8-8.6
					s-0.1,5.7-2.8,8.6c-2.2,2.4-6.7,2.6-7.5,2.6c0.8,0,5.3,0.1,7.9,2.6c2.3,2.1,2.4,7.3,2.4,7.3s-0.2-4.9,2.4-7.3
					c2.7-2.5,8.1-2.6,8.1-2.6S117.1,113.2,114.6,110.5z M101.4,113.1c-0.1,0-0.1,0-0.1,0S101.3,113.1,101.4,113.1z" />
				</g>
			</g>
		</g>
		<g id="bow_1_" class="st0">
			<path id="_x32__1_" class="st3" d="M46.3,59.7L21,12.4c0,0-5.2-8.8-0.6-11.6c3.8-2.4,5.9,8.4,7.6,7.6
			C52.5-3.8,87.6,33.7,87.6,33.7l-12,7.8c0,0-27.7-39.9-50.1-25.9c12.1,22.7,22.9,42.8,22.9,42.8L46.3,59.7z M58.1,76.5
			c0,0,10.7,20,20.5,38.3C100,101.5,84,57.3,84,57.3l12.5-7.8c0,0,10.9,48.5-11.4,67.2c1.7,3.1,6.1,8.4,2.7,10.3
			c-4.7,2.9-9-6.4-9-6.4L56,77.8L58.1,76.5z" />
			<g id="_x31__1_" class="st1">
				<g>
					<path class="st2" d="M88.4,23.1l13.1,7.9L10.1,90.7l3,5.8l91.8-58.2l1.4,15.6L128,18.9L88.4,23.1z M29.8,99.5l5.6-2.9L41,81.1
					l-8.4,5.8L29.8,99.5z M14.6,109.8l6.1-3.8l5.7-15.8l-6.3,3.9L14.6,109.8z M36.2,72l-15.3-2.5l-6.3,3.9l13.2,3.8L36.2,72z
					 M22.3,80.9l-16-2.2L0,82.6l16.2,2.6L22.3,80.9z" />
				</g>
			</g>
		</g>
		<g id="reading_1_" class="st0">
			<g id="_x32__2_" class="st1">
				<g>
					<path class="st2"
						d="M0,20.3v87.4h128V20.3H0z M6.4,103.1V24.9h55.5v78.2H6.4z M121.6,103.1H66.1V24.9h55.5V103.1z" />
				</g>
			</g>
			<g id="_x31__2_" class="st1">
				<g>
					<path class="st2" d="M10.7,43.3h46.9v-4.6H10.7V43.3z M10.7,54.8h46.9v-4.6H10.7V54.8z M10.7,66.3h46.9v-4.6H10.7V66.3z
					 M10.7,77.8h46.9v-4.6H10.7V77.8z M10.7,89.3h46.9v-4.6H10.7V89.3z M70.4,38.7v4.6h46.9v-4.6H70.4z M70.4,54.8h46.9v-4.6H70.4
					V54.8z M70.4,66.3h46.9v-4.6H70.4V66.3z M70.4,77.8h46.9v-4.6H70.4V77.8z M70.4,89.3h46.9v-4.6H70.4V89.3z" />
				</g>
			</g>
		</g>
		<g id="guitar_1_" class="st0">
			<g id="_x32__3_" class="st1">
				<g>
					<path class="st2" d="M52.7,60.1c0,0,1.1,2.2,2.3,4.6c1.1,2.1,2.3,4.6,2.3,4.6l4.1-2.7L57,57.7L52.7,60.1z M59.1,56.5l4.4,8.7
					l6.2-4l-4.2-8.3L59.1,56.5z M123.9,29.5l4.1-3l-5-9.7l-4.2,2.6c0,0,0-4.7-2.1-4.2c-3.8,0.9-0.6,4.5,0.4,5
					c-1.2,0.6-1.3,0.7-2.8,1.3c-1.4-8.4-7.4-2.9-2.5,1.1c-1,0.5-1,0.5-2.3,1.3c-0.2-7.3-7.3-1-1.9,0.9c-0.5,0.5-2.3,1.2-2.3,1.2
					l-1.4,5.1L67.7,51.6l4.2,8.2l13.4-8.7l-3.5-6.8l2.1-1.3l3.4,6.7l6.2-4l-3.3-6.4l2.1-1.3l3.2,6.3l6.2-4l-3.1-6.1l2.1-1.3l3.1,6
					l3-2l4.4,1.3l2.3-1.9c0,0,0,2.5,0.9,3.3c1.8,1.7,5.4-2.2,0.6-4.5c0.8-0.5,2.5-1.8,2.5-1.8s0.6,2.8,1.6,3.4
					c1.3,0.8,4.3-1.7,0.1-4.4c1-0.6,1.9-1.4,2.9-2c0.1,5.8,3.5,2.7,3.4,2.7C127,31.3,123.9,29.5,123.9,29.5z M76.9,56.2l-3.5-6.8
					l2.1-1.3l3.5,6.8L76.9,56.2z M108.8,29.8c-0.9-0.3-1.4-1.3-1.2-2.3c0.3-1,1.2-1.5,2.1-1.3c0.9,0.3,1.4,1.3,1.2,2.3
					C110.7,29.5,109.7,30,108.8,29.8z M113.3,33.1c-0.3,1-1.2,1.5-2.1,1.3c-0.9-0.3-1.4-1.3-1.2-2.3c0.3-1,1.2-1.5,2.1-1.3
					C113,31.1,113.5,32.1,113.3,33.1z M113,27.2c-0.9-0.3-1.4-1.3-1.2-2.3c0.3-1,1.2-1.5,2.1-1.3c0.9,0.3,1.4,1.3,1.2,2.3
					C114.9,27,113.9,27.5,113,27.2z M117.5,30.6c-0.3,1-1.2,1.5-2.1,1.3c-0.9-0.3-1.4-1.3-1.2-2.3c0.3-1,1.2-1.5,2.1-1.3
					C117.2,28.6,117.7,29.6,117.5,30.6z M117.3,24.7c-0.9-0.3-1.4-1.3-1.2-2.3c0.3-1,1.2-1.5,2.1-1.3c0.9,0.3,1.4,1.3,1.2,2.3
					C119.1,24.5,118.2,25,117.3,24.7z M121.7,28c-0.3,1-1.2,1.5-2.1,1.3c-0.9-0.3-1.4-1.3-1.2-2.3c0.3-1,1.2-1.5,2.1-1.3
					C121.4,26,122,27.1,121.7,28z" />
				</g>
			</g>
			<g id="_x31__3_" class="st1">
				<g>
					<path class="st2" d="M70.1,62.8c-1.8,1.5-13.7,8.4-13.7,8.4s0,0,0,0c0,1.1-0.1,2.2-0.4,3.3c-1.6,5.8-7.2,9.2-12.7,7.5
					c-5.4-1.7-8.6-7.8-7-13.7c1.5-5.7,7-9.1,12.4-7.6c-0.2-0.1-0.3-0.1-0.3-0.1s16.3-9.5,16.2-9.6C54.5,32.4,37.9,50,31.4,53.8
					C18.7,61.1-3.4,50,0.5,84c1.8,15.3,22.4,38,37,25.1c6.1-5.4,6.9-12.7,13.9-17.7C63.4,82.6,78.6,86.9,70.1,62.8z M28,93.3
					L18.8,74l4.7-2.8l9.8,19.4L28,93.3z M48.5,62.6C44,61.2,39.3,64,38,68.9c-1.3,4.9,1.3,10,5.8,11.4c4.5,1.4,9.3-1.4,10.6-6.3
					C55.6,69.1,53,64,48.5,62.6z M52.3,73.4c-1,3.7-4.5,5.8-7.9,4.7C41,77,39,73.2,40,69.5c1-3.7,4.5-5.8,7.9-4.7
					C51.3,65.9,53.3,69.7,52.3,73.4z M52.7,63c0.6,0.6,1.2,1.2,1.7,2c0,0,0-0.1-0.1-0.1C53.9,64.2,53.3,63.5,52.7,63z" />
				</g>
			</g>
		</g>
		<g id="swimming_1_" class="st0">
			<g id="_x32__4_" class="st1">
				<g>
					<path class="st2" d="M22.7,85.2c11,8.7,20.1,8.7,31.1,0c7.3-5.7,13.5-5.7,20.7,0c11.2,8.8,20.7,8.8,31.8,0
					c7.5-5.9,11.1-5.9,18.6,0l3-7.2c-9.3-7.3-15.4-7.3-24.7,0c-9.5,7.4-16.6,7.2-25.7,0c-8.9-7-17.5-7.3-26.8,0
					c-9.8,7.7-16.3,6.9-25,0C16.4,70.7,8.9,71,0,78l3,7.2C10.4,79.4,15.4,79.4,22.7,85.2z M103.3,93c-9.5,7.4-16.6,7.2-25.7,0
					c-8.9-7-17.5-7.3-26.8,0c-9.8,7.7-16.3,6.9-25,0C16.4,85.7,8.9,86,0,93l3,7.2c7.4-5.8,12.3-5.8,19.7,0c11,8.7,20.1,8.7,31.1,0
					c7.3-5.7,13.5-5.7,20.7,0c11.2,8.8,20.7,8.8,31.8,0c7.5-5.9,11.1-5.9,18.6,0l3-7.2C118.7,85.7,112.6,85.7,103.3,93z M100.1,70.7
					c6.4,0,11.7-5.5,11.7-12.4s-5.2-12.4-11.7-12.4c-6.4,0-11.7,5.5-11.7,12.4S93.7,70.7,100.1,70.7z" />
				</g>
			</g>
			<path id="_x31__4_" class="st3" d="M94,21.2c3.8,0,9.1-0.2,9.5,9.2c-0.6,2.5-3.5,5.3-6.7,5.9C87.4,37.8,73,40.9,73,40.9L94,81.2
			c0,0-3.2,1.5-8.1,0c-3.5-1.1-9.5-10.9-20.8-10.7C52,70.7,44.4,81.3,39.1,81.2c-7.5,0-10.6-2.7-10.6-2.7s23.1-13.6,35-20.4
			c-2-9.3-10-13.5-10.3-24.7C53.7,27.1,81.5,23.3,94,21.2z" />
		</g>
	</g>
	<g id="row2_1_">
		<g id="surfing_1_">
			<path id="_x32__5_" class="st4" d="M44.6,101.1c8-1.3,18.9-8.4,20.1-10.2c2.2,0.6,4.5,1.3,6.9,2c-1.8,4.4-8.7,23.4,5.8,23.4
			c5.8,0,6.4-10.5,7.6-19.4c22.7,7,44.3,15,43,20.7c-2,8.1-49.2,6.1-77.7,0.5c-37.2-7.2-35-40.7-4.3-31.9
			C33.1,87.7,30.3,103.4,44.6,101.1z" />
			<g id="_x31__5_">
				<g>
					<path class="st2" d="M2.9,61.9c-5.8,20.8-2.8,42.5,7.5,58.1c16.6,0,34.2,1.2,34.2,1.2S-3.8,98.3,31.9,81.2
					c-0.4-2.3-0.6-12.3,1.1-17.9C40.6,36.3,65,17.9,96.4,33c-3.6-8-12.7-12.9-22.7-13.7c19.6-8.9,39.4,10,49.3,17.9
					c0.4,0,0.8,0,1.3,0C107.6-8.1,22.9-10.2,2.9,61.9z M88.5,43.9c-1.9-0.2-3.8-0.3-5.7-0.5c-3.2,2.8-6,5.6-3.8,11.4
					c-11-4.4-14.6-7.6-20.7-16.8c-1.1,0-2.2,0-3.3,0c-0.5,0.3-0.9,0.7-1.4,1c-0.2,0.5-0.3,1-0.5,1.5c0.6,9.2,9,16.3,17,18.3
					c-12.5,9.8-17.3,2.5-17,26.2c-4.8,1.6-12.1,4.5-15.1,8.4c-0.2,0.8-0.3,1.6-0.5,2.5c0.9,1.8,1.1,2.5,2.8,3.5
					c5.8,2.2,17.2-5.7,21.2-8.4c0.2-3.3,0.3-6.6,0.5-9.9c3.1,2.8,6.3,5.6,9.4,8.4c2.3,5.4-0.6,14.1-0.9,20.8c0.9,1,1.9,2,2.8,3
					c0.8,0.2,1.6,0.3,2.4,0.5c0.8-0.3,1.6-0.7,2.4-1c3.2-5.7,4-17.1,3.8-25.7c-3.5-3.1-6.9-6.3-10.4-9.4c-0.2-0.3-0.3-0.7-0.5-1
					c4.9-2.5,9.7-4.9,14.6-7.4c5.2,4.8,10.4,9.6,15.5,14.3c0.9-0.2,1.9-0.3,2.8-0.5c1-1.6,1.4-2,1.4-4.9
					c-6.6-6.6-13.2-13.2-19.8-19.8C94.4,57.9,93.8,47.6,88.5,43.9z" />
				</g>
			</g>
		</g>
		<g id="yoga_1_" class="st0">
			<g id="body" class="st1">
				<g>
					<path class="st2" d="M53.6,57.2L37.7,85.8h53L77.4,57.2l29.2,37.2h8L85.4,37.2H44.6L13.8,94.3h10.6L53.6,57.2z M93.3,88.6
					c0,0-38.9,0-58.3,0c-7.8,6.4-21.4,17.7-23.9,28.6c-5.9,25.8,53-2.9,53-2.9L88,125.8v-11.4l-23.9-11.4c0,0-31.9,9-31.8,5.7
					c2.7,0,31.8-8.6,31.8-8.6l26.5,11.4v14.3c0,0,24.9,4.5,26.5-8.6C118.2,108.8,93.3,88.6,93.3,88.6z" />
				</g>
			</g>
			<ellipse id="head" class="st3" cx="64.2" cy="17.2" rx="15.9" ry="17.2" />
		</g>
		<g id="joystick_1_" class="st0">
			<g id="Base" class="st1">
				<g>
					<path class="st2" d="M120.2,38.4c-11.8-17.8-36.9-11.8-36.9-11.8s-2.8-3.6-7-6.8c0,0.1,0,0.2,0,0.3c0,2.9-5.5,8-12.3,8
					c-6.8,0-12.3-5-12.3-8c0-0.1,0-0.1,0-0.2c-4,3.2-6.5,6.7-6.5,6.7s-27-4.1-36.9,11.8c-12,19.2-7.4,59-7.4,59s6.8,16.1,14.8,15.7
					c16-0.7,16.3-21.3,16.3-21.3s12.5,2.5,17.2,0c6.1-3.3,4.9-13.3,4.9-13.3h14.8c0,0-1.2,9.8,7.4,13.3c5.4,2.1,14.4-2.3,14.4-2.3
					s14.7,23.6,22.2,23.6c9,0,14.8-19.7,14.8-19.7S130.5,54,120.2,38.4z M24.6,70.6V60.1L14.8,60V46.7h9.9V36.1h12.3v10.6h9.9V60
					l-9.9,0.4v10.2H24.6z M43.1,89.2c-4.8,0-8.6-4.2-8.6-9.3c0-5.1,3.9-9.3,8.6-9.3c4.8,0,8.6,4.2,8.6,9.3
					C51.7,85.1,47.8,89.2,43.1,89.2z M99.7,30.8c4.8,0,8.6,4.2,8.6,9.3c0,5.1-3.9,9.3-8.6,9.3s-8.6-4.2-8.6-9.3
					C91.1,35,95,30.8,99.7,30.8z M80,89.2c-4.8,0-8.6-4.2-8.6-9.3c0-5.1,3.9-9.3,8.6-9.3s8.6,4.2,8.6,9.3
					C88.7,85.1,84.8,89.2,80,89.2z M89.9,68c-4.8,0-8.6-4.2-8.6-9.3s3.9-9.3,8.6-9.3s8.6,4.2,8.6,9.3S94.6,68,89.9,68z M102.2,86.6
					c-4.8,0-8.6-4.2-8.6-9.3s3.9-9.3,8.6-9.3c4.8,0,8.6,4.2,8.6,9.3S107,86.6,102.2,86.6z M112.1,68c-4.8,0-8.6-4.2-8.6-9.3
					s3.9-9.3,8.6-9.3c4.8,0,8.6,4.2,8.6,9.3S116.8,68,112.1,68z" />
				</g>
			</g>
			<g id="buttons" class="st1">
				<g>
					<path class="st2" d="M64,14.8c-5.4,0-9.9,2.4-9.9,5.3s4.4,5.3,9.9,5.3s9.9-2.4,9.9-5.3S69.5,14.8,64,14.8z M44.3,49.4h-9.9V38.8
					h-7.4v10.6h-9.9v8h9.9V68h7.4V57.4h9.9V49.4z M99.7,46.8c3.4,0,6.1-3,6.1-6.7c0-3.7-2.7-6.7-6.1-6.7c-3.4,0-6.1,3-6.1,6.7
					C93.6,43.8,96.4,46.8,99.7,46.8z M80,73.3c-3.4,0-6.2,3-6.2,6.6c0,3.7,2.8,6.6,6.2,6.6c3.4,0,6.2-3,6.2-6.6
					C86.2,76.3,83.4,73.3,80,73.3z M112,52.1c-3.4,0-6.2,3-6.2,6.6c0,3.7,2.8,6.6,6.2,6.6c3.4,0,6.2-3,6.2-6.6
					C118.2,55,115.5,52.1,112,52.1z M89.9,52.1c-3.4,0-6.2,3-6.2,6.6c0,3.7,2.8,6.6,6.2,6.6c3.4,0,6.2-3,6.2-6.6
					C96.1,55,93.3,52.1,89.9,52.1z M102.2,70.6c-3.4,0-6.1,3-6.1,6.7c0,3.7,2.7,6.7,6.1,6.7s6.1-3,6.1-6.7
					C108.3,73.6,105.6,70.6,102.2,70.6z M43.1,73.3c-3.4,0-6.2,3-6.2,6.6c0,3.7,2.8,6.6,6.2,6.6c3.4,0,6.2-3,6.2-6.6
					C49.2,76.3,46.5,73.3,43.1,73.3z" />
				</g>
			</g>
		</g>
		<g id="fishing_1_" class="st0">
			<g id="hook" class="st1">
				<g>
					<path class="st2" d="M121.1,22.6h-2.2V41h2.2V22.6z M120.3,41.1c-4-0.8-5.1,6-1.9,7.1c0.5,0.9,0.2,3.1,0.2,4.5
					c0,4.2,0.7,10.1-1.5,11.9c-2,1.6-4.8,0.2-5.5-1.7c-0.3-0.8-0.2-2-0.2-3c0.4,0,0.7,0,1.1,0c0-0.8-2.8-5.9-3.4-6.6
					c0-0.1,0-0.1,0-0.2c-0.5,1.1-0.1,3.7-0.1,5.2c0,2-0.1,4.2,0.4,5.6c1.1,2.8,5.1,5.5,8.6,3.3c3.9-2.5,3.2-7.1,3.2-13.6
					c0-1.7,0-3.4,0.1-5.1c0.5-0.8,1.5-1.1,1.9-2.1C124.1,43.6,122.2,41.5,120.3,41.1z" />
				</g>
			</g>
			<g id="fish" class="st1">
				<g>
					<path class="st2" d="M102.3,52.5c-2.5,0-4.4,2.1-4.4,4.6c0,2.5,2,4.6,4.4,4.6s4.4-2.1,4.4-4.6C106.7,54.6,104.7,52.5,102.3,52.5
					z M127.5,62.9c-8.8-11.2-23.5-21-36.8-25.2c-5-0.6-10.1-1.2-15.1-1.8C66.2,32,48,21.2,48,21.2l7.1,17.5c0,0-22.5,11-33.8,16.6
					C15.7,53.8,8.2,43,1.8,39.6c-0.3,0-0.6,0-0.9,0C3.5,56.3,6.4,81.9,0,96.7c0,0.3,0,0.6,0,0.9c11-1,17.7-12.2,23.1-16.6
					c7.4,3.7,22.2,11,22.2,11l-5.5,8.1c0,0,11.7-5,18.8-5.4c8.3-0.5,14.6,2.1,16,1.8c-0.9,3.4-1.8,6.7-2.7,10.1
					c3.6-0.1,10.2-10.4,19.6-12.9c18.6-4.9,28-13.4,34.2-20c1.7-1.9-9.4-2.4-9.2-3.3C116.8,69.5,130.7,67,127.5,62.9z M52.5,73.6
					C43.4,75.8,35.6,80,35.6,80s7.5-7.2,17.5-9.6c7.8-1.9,18.6,0.7,18.6,0.7S61.5,71.4,52.5,73.6z M55.5,63.7
					c-9.1,2.2-16.9,6.4-16.9,6.4s7.5-7.2,17.5-9.6c7.8-1.9,18.6,0.7,18.6,0.7S64.5,61.5,55.5,63.7z M58.6,53.8
					c-9.1,2.2-16.9,6.4-16.9,6.4s7.5-7.2,17.5-9.6c7.8-1.9,18.6,0.7,18.6,0.7S67.6,51.6,58.6,53.8z M85.4,63.5
					c0.4,11.4,5.1,25.6,5.3,27.6c-1,1-8.4-17.9-8-26.7c0.5-11.2,8.3-25.1,10.7-24.8C93.3,41.5,84.9,51.1,85.4,63.5z M102.3,63.5
					c-3.4,0-6.2-2.9-6.2-6.4c0-3.6,2.8-6.4,6.2-6.4c3.4,0,6.2,2.9,6.2,6.4C108.5,60.7,105.7,63.5,102.3,63.5z" />
				</g>
			</g>
		</g>
		<g id="gym_1_" class="st0">
			<g id="weights" class="st1">
				<g>
					<path class="st2" d="M5.9,30.1C3.9,36,0,47.8,0,47.8v32.5l5.9,17.6h25.5l5.9-17.6V47.8l-5.9-17.6C31.4,30.1,18.5,30.4,5.9,30.1z
					 M122.1,30.1c0,0-12.9,0.2-25.5,0c-2,5.9-5.9,17.6-5.9,17.6v32.5l5.9,17.6h25.5l5.9-17.6V47.8L122.1,30.1z" />
				</g>
			</g>
			<rect id="holder" x="41.3" y="53.5" class="st3" width="45.3" height="20.9" />
		</g>
	</g>
	<g id="row1_1_" class="st0">
		<g id="hiking_1_" class="st1">
			<g id="_x32__9_">
				<g>
					<path class="st2"
						d="M64,25.3c6.8,0,12.3-5.7,12.3-12.6C76.3,5.7,70.8,0,64,0c-6.8,0-12.3,5.7-12.3,12.6
					C51.7,19.6,57.2,25.3,64,25.3z M71.7,65.7c6.6,3.9,17,5.1,17,5.1l0.8-8.4c0,0-10-5.3-16.2-10.1c-2.9-13.6-6.9-21.9-6.9-21.9
					L54,25.3l-11.6,3.8l-3.1,51.8L20.8,128l11.6,0l17.7-42.1H54L77.1,128l10,0L61.7,72.4l-1.5-18.5C60.1,53.9,64.1,61.2,71.7,65.7z" />
				</g>
			</g>
			<g id="_x31__9_">
				<g>
					<path class="st2"
						d="M23.6,69.8h10.8L37,29.1H23.6V69.8z M93.9,26.2l-5.6,1.2L101.5,128l5.6-1.2L93.9,26.2z" />
				</g>
			</g>
		</g>
		<g id="basketball_1_" class="st1">
			<g id="_x32__24_">
				<g>
					<path class="st2" d="M89.6,77.7l-2.3,12.8v-1.4H74.1l0.5-11.4h-4l-0.5,11.4H54.1l-1-11.4h-4l1,11.4h-9.7l-2.1-11.4
					c-0.6,0-1.5,0-2.5,0c-1,0-1.5,0-1.5,0l9.1,50.3h4l-1.2-6.9h6.8l0.6,6.9h4l-0.6-6.9h11.5l-0.3,6.9h4l0.3-6.9h9.2l-1.2,6.9h4
					l9.1-50.3H89.6z M42.9,102.8l-1.6-9.1l9.3,0l0.8,9.1L42.9,102.8z M45.4,116.6l-1.6-9.1l8.1,0l0.8,9.1H45.4z M68.8,116.6H56.6
					l-0.8-9.1l13.4,0L68.8,116.6z M69.4,102.9l-14.1,0l-0.8-9.1l15.3,0L69.4,102.9z M82.6,116.6h-9.8l0.4-9.1l11,0L82.6,116.6z
					 M85.1,102.9l-11.6,0l0.4-9.1l12.9,0L85.1,102.9z M91.6,38.9H36.4v29.7h55.1V38.9z" />
				</g>
			</g>
			<g id="_x31__10_">
				<g>
					<path class="st2" d="M15.3,0v80h17h61.5h19.1V0H15.3z M95.8,75.4H32.2v-2.3h63.6V75.4z M91.6,68.6H36.4V38.9h55.1V68.6z
					 M106.4,73.1H100v-4.6h-4.2V34.3H32.2v34.3H28v4.6h-6.4V6.9h84.8V73.1z" />
				</g>
			</g>
		</g>
		<g id="singing_1_" class="st1">
			<g id="_x32__10_">
				<g>
					<path class="st2" d="M72.6,48.1l-30.6,63c-4.1,6.7,2.3,11.9,2.3,11.9c6.2,4.5,9.9,0.1,9.9,0.1l43.8-56.9L72.6,48.1z M45.2,9.5
					c0,0,3.7,2.2,8.4,2.2c5.2,0,9.4-3.3,9.4-3.3V2.9c0,0-4.2,3.3-9.7,3.3c-6,0-11.3-3.3-11.3-3.3v33.9h3.1V9.5z M14.1,11.1V45h3.1
					V17.7c0,0,3.7,2.2,8.4,2.2c5.2,0,9.4-3.3,9.4-3.3v-5.5c0,0-4.2,3.3-9.7,3.3C19.4,14.4,14.1,11.1,14.1,11.1z" />
				</g>
			</g>
			<g id="_x31__11_">
				<g>
					<path class="st2" d="M39.4,27.1c-3.8,0-6.8,3.1-6.8,7c0,3.9,3,7,6.8,7c3.8,0,6.8-3.1,6.8-7C46.2,30.3,43.1,27.1,39.4,27.1z
					 M11.5,35.4c-3.8,0-6.8,3.1-6.8,7s3,7,6.8,7c3.8,0,6.8-3.1,6.8-7S15.2,35.4,11.5,35.4z M120.4,49.6c2.7-5.4,3.7-11.9,2.2-18.6
					c-3.3-14.9-15.3-23.6-29.4-21.1C87,11,81.7,14.4,78.2,19.2l0.2,0.1c-1.4-0.8-2.9-0.5-3.7,0.6c-0.8,1.3-0.3,3.1,1.1,4.1
					l41.3,29.7c1.4,1,3.2,0.8,4-0.5c0.7-1.2,0.3-2.9-0.9-3.9L120.4,49.6z M94.3,21.7c-1.2,1.9-3.7,2.4-5.6,1c-1.9-1.4-2.5-4.1-1.3-6
					c1.2-1.9,3.7-2.4,5.6-1C94.9,17.1,95.5,19.8,94.3,21.7z M97.5,13.9c1.2-1.9,3.7-2.4,5.6-1c1.9,1.4,2.5,4.1,1.3,6
					c-1.2,1.9-3.7,2.4-5.6,1C96.9,18.5,96.3,15.8,97.5,13.9z M105.9,30c-1.2,1.9-3.7,2.4-5.6,1c-1.9-1.4-2.5-4.1-1.3-6
					c1.2-1.9,3.7-2.4,5.6-1C106.5,25.4,107.1,28.1,105.9,30z M109.1,22.2c1.2-1.9,3.7-2.4,5.6-1c1.9,1.4,2.5,4.1,1.3,6
					c-1.2,1.9-3.7,2.4-5.6,1C108.5,26.8,107.9,24.2,109.1,22.2z M117.5,38.4c-1.2,1.9-3.7,2.4-5.6,1c-1.9-1.4-2.5-4.1-1.3-6
					c1.2-1.9,3.7-2.4,5.6-1C118.1,33.8,118.7,36.4,117.5,38.4z M73.2,41c0.4,1.9,1,3.8,1.7,5.5l23.6,17c1.8,0.1,3.6-0.1,5.4-0.4
					c4.8-0.9,9.1-3.3,12.4-6.6L74,26.1C72.5,30.7,72.1,35.8,73.2,41z" />
				</g>
			</g>
		</g>
		<g id="hunting_1_" class="st1">
			<g id="_x33__1_">
				<g>
					<path class="st2" d="M116.7,68.2c-0.6-4.3-3.7-7.7-7.7-8.3v-4.3h-1.3v4.2c0,0,0,0,0,0c-4.6,0-8.4,3.7-9,8.4H96v1.4h2.6
					c0,5.4,4.1,9.8,9.1,9.8c0,0,0,0,0,0v2.8h1.3v-2.9c4.4-0.7,7.8-4.8,7.8-9.7h3.9v-1.4H116.7z M109,77.9v-5.5h-1.3v5.6c0,0,0,0,0,0
					c-4.3,0-7.8-3.8-7.8-8.4h5.2v-1.4H100c0.6-4,3.8-7,7.7-7c0,0,0,0,0,0v4.2h1.3v-4.1c3.3,0.6,5.9,3.4,6.4,6.9h-3.8v1.4h3.9
					C115.5,73.8,112.7,77.3,109,77.9z M107.7,52.7c-8.6,0-15.6,7.6-15.6,16.9c0,9.3,7,16.9,15.6,16.9c8.6,0,15.6-7.6,15.6-16.9
					C123.3,60.3,116.3,52.7,107.7,52.7z M107.7,85.1c-7.9,0-14.3-6.9-14.3-15.5s6.4-15.5,14.3-15.5c7.9,0,14.3,6.9,14.3,15.5
					S115.6,85.1,107.7,85.1z" />
				</g>
			</g>
			<g id="_x32__11_">
				<g>
					<path class="st2" d="M110.3,40.3l-1.4-3.1l-66,19.3L37.7,63l0-0.8c0,0-10.1,1-15.2,1.6c-6,2.2-11.9,4.3-17.9,6.5
					C6.4,77,8.1,83.9,9.9,90.7c7.5-5.2,28.2-15,28.2-15l0.7-4.3c0,0,5.2,9.3,11.5,5.2c2.8-1.8,3-9.9,3-9.9l29.9-12.6L81.8,51
					L110.3,40.3z M47.7,75.2c-3.4,1-5.7-4.6-5.7-4.6l3-1c0,0,1.8,3,2.8,2.8c1-0.2-0.4-3.6-0.4-3.6l3.1-1
					C50.4,67.8,51,74.2,47.7,75.2z" />
				</g>
			</g>
			<path id="_x31__12_" class="st4"
				d="M41,48.5c0,0,7.8-0.3,15.1-2.3c7.3-2.1,14.1-5.9,14.1-5.9l1.8,5.9l-29.2,8.3L41,48.5z" />
		</g>
		<g id="movie_1_" class="st1">
			<rect id="bg_1_" x="40.5" y="13.5" class="st4" width="46.9" height="40.4" />
			<rect id="bg" x="40.5" y="74.1" class="st4" width="46.9" height="40.4" />
			<g id="icon">
				<g>
					<path class="st2" d="M9.3,0v128h109.3V0H9.3z M28,114.6h-9.4v-10.2H28V114.6z M28,101h-9.4V87.6H28V101z M28,84.2h-9.4V70.8H28
					V84.2z M28,60.6h-9.4V47.1H28V60.6z M28,40.4h-9.4V27H28V40.4z M28,23.5h-9.4V10.1H28V23.5z M90.5,117.9H37.4V70.8h53.1V117.9z
					 M90.5,57.2H37.4V10.1h53.1V57.2z M109.3,114.6h-9.4v-10.2h9.4V114.6z M109.3,101h-9.4V87.5h9.4V101z M109.3,84.2h-9.4V70.8h9.4
					V84.2z M109.3,60.6h-9.4V47.1h9.4V60.6z M109.3,40.4h-9.4V27h9.4V40.4z M109.3,23.5h-9.4V10.1h9.4V23.5z" />
				</g>
			</g>
		</g>
	</g>
</svg>